#define cannon_width 11
#define cannon_height 10
static unsigned char cannon_bits[] = {
   0x00, 0x00, 0x00, 0x00, 0x00, 0x00, 0x20, 0x00, 0x70, 0x00, 0x70, 0x00,
   0xfe, 0x03, 0xff, 0x07, 0xff, 0x07, 0xff, 0x07 };
