#define monster4_width 11
#define monster4_height 10
static unsigned char monster4_bits[] = {
   0x00, 0x00, 0x04, 0x01, 0x88, 0x00, 0xfc, 0x01, 0x76, 0x03, 0xff, 0x07,
   0xfd, 0x05, 0x05, 0x05, 0xd8, 0x00, 0x00, 0x00 };
