#define monster3_width 11
#define monster3_height 10
static unsigned char monster3_bits[] = {
   0x00, 0x00, 0x70, 0x00, 0xfe, 0x03, 0xff, 0x07, 0x73, 0x06, 0xff, 0x07,
   0x8c, 0x01, 0x76, 0x03, 0x01, 0x04, 0x00, 0x00 };
