#define monster1_width 11
#define monster1_height 10
static unsigned char monster1_bits[] = {
   0x00, 0x00, 0x70, 0x00, 0xf8, 0x00, 0xfc, 0x01, 0x76, 0x03, 0xfe, 0x03,
   0x88, 0x00, 0x74, 0x01, 0x8a, 0x02, 0x00, 0x00 };
